<svg width="12" height="16" viewBox="0 0 12 16" fill="none" xmlns="http://www.w3.org/2000/svg">
<path fill-rule="evenodd" clip-rule="evenodd" d="M2.66666 8.00002C2.66666 8.51822 3.23198 8.83829 3.67633 8.57168L5 7.77748L6.32367 8.57168C6.76802 8.83829 7.33333 8.51822 7.33333 8.00002V1.33335C7.33333 0.965164 7.03485 0.666687 6.66666 0.666687H3.33333C2.96514 0.666687 2.66666 0.965164 2.66666 1.33335V8.00002ZM4.657 6.42836L4 6.82256V2.00002H6V6.82256L5.34299 6.42836C5.13187 6.30169 4.86812 6.30169 4.657 6.42836Z" fill="#E66CFF" fill-opacity="0.98"/>
<path d="M1.33333 2.00002H8.66667C9.77124 2.00002 10.6667 2.89545 10.6667 4.00002V12C10.6667 13.1046 9.77124 14 8.66667 14H2C1.63181 14 1.33333 14.2985 1.33333 14.6667C1.33333 15.0349 1.63181 15.3334 2 15.3334H8.66667C10.5076 15.3334 12 13.841 12 12V4.00002C12 2.15907 10.5076 0.666687 8.66667 0.666687H0.666667C0.298477 0.666687 0 0.965164 0 1.33335V12C0 12.3682 0.298477 12.6667 0.666667 12.6667C1.03486 12.6667 1.33333 12.3682 1.33333 12V2.00002Z" fill="#9013FE"/>
<circle cx="8.66667" cy="12" r="0.666667" fill="#FF9F00"/>
</svg>
